<?xml version="1.0" standalone="no"?>
<!DOCTYPE svg PUBLIC "-//W3C//DTD SVG 20010904//EN"
 "http://www.w3.org/TR/2001/REC-SVG-20010904/DTD/svg10.dtd">
<svg version="1.0" xmlns="http://www.w3.org/2000/svg"
 width="960.000000pt" height="980.000000pt" viewBox="0 0 960.000000 980.000000"
 preserveAspectRatio="xMidYMid meet">

<g transform="translate(0.000000,980.000000) scale(0.100000,-0.100000)"
fill="#000000" stroke="none">
<path d="M4720 9777 c-105 -44 -249 -149 -388 -285 -188 -184 -338 -432 -460
-762 -90 -243 -100 -291 -112 -515 -9 -183 -30 -886 -30 -1032 l0 -61 -357
-152 c-676 -288 -2798 -1198 -2950 -1264 l-152 -67 -26 -112 c-52 -220 -203
-992 -240 -1224 -6 -39 -5 -43 15 -43 44 0 426 79 1790 370 918 196 1867 390
1905 390 19 0 24 -7 29 -42 27 -195 128 -1594 171 -2380 8 -153 15 -398 15
-545 l-1 -268 -237 -108 c-130 -60 -476 -219 -768 -355 l-532 -245 -7 -374
c-8 -405 -4 -598 11 -613 7 -7 119 17 345 74 319 80 823 204 1144 281 83 20
162 37 177 37 29 1 138 -68 441 -280 104 -72 216 -148 248 -168 l59 -36 48 28
c52 30 75 46 367 252 222 156 302 202 349 202 30 0 552 -126 1281 -309 198
-49 361 -88 363 -86 2 2 0 227 -4 500 l-9 497 -320 149 c-176 83 -516 240
-755 351 -239 111 -441 206 -449 212 -35 27 13 1049 114 2466 28 383 52 678
61 728 4 27 9 32 32 32 37 0 896 -173 1957 -394 1107 -230 1745 -359 1751
-353 9 9 -256 1344 -274 1375 -4 7 -434 194 -957 416 -522 221 -1297 550
-1721 731 l-772 328 -6 191 c-3 105 -10 362 -16 571 -14 524 -24 605 -107 835
-171 476 -496 883 -836 1046 -84 40 -113 42 -187 11z m136 -445 c85 -56 220
-203 314 -343 171 -255 253 -470 281 -734 7 -64 14 -379 18 -750 l6 -640 690
-292 c380 -161 1170 -499 1758 -750 l1067 -457 15 -50 c17 -61 91 -430 101
-503 5 -44 4 -53 -9 -53 -22 0 -817 161 -1557 316 -1572 329 -2026 421 -2034
413 -19 -18 -97 -1167 -161 -2354 -39 -742 -47 -952 -43 -1283 l3 -313 600
-278 c330 -153 677 -314 770 -358 l170 -79 3 -119 c1 -65 -1 -122 -6 -127 -5
-5 -304 66 -678 161 -369 93 -679 171 -690 172 -13 3 -91 -47 -230 -147 -216
-156 -432 -304 -445 -304 -13 0 -213 136 -432 293 -119 87 -225 157 -234 157
-9 0 -285 -68 -612 -151 -328 -83 -633 -161 -678 -172 -45 -12 -86 -17 -90
-13 -4 4 -10 60 -11 125 l-4 117 124 58 c67 32 346 162 618 288 272 126 569
264 659 306 l164 76 -6 435 c-3 240 -11 519 -16 621 -6 102 -18 307 -26 455
-53 936 -150 2278 -174 2395 -6 31 -11 35 -41 38 -19 1 -512 -99 -1095 -223
-1533 -326 -2431 -515 -2450 -515 -15 0 -16 8 -10 66 9 90 101 534 111 543 5
5 682 294 1504 644 822 350 1614 687 1760 749 l265 113 6 670 c7 695 12 779
55 952 35 142 128 342 226 485 124 182 328 395 379 398 3 0 32 -17 65 -38z"/>
</g>
</svg>
