<?xml version="1.0" standalone="no"?>
<!DOCTYPE svg PUBLIC "-//W3C//DTD SVG 20010904//EN"
 "http://www.w3.org/TR/2001/REC-SVG-20010904/DTD/svg10.dtd">
<svg version="1.0" xmlns="http://www.w3.org/2000/svg"
 width="512.000000pt" height="512.000000pt" viewBox="0 0 512.000000 512.000000"
 preserveAspectRatio="xMidYMid meet">

<g transform="translate(0.000000,512.000000) scale(0.100000,-0.100000)"
fill="#000000" stroke="none">
<path d="M327 4346 c-59 -22 -97 -57 -127 -121 -19 -39 -20 -76 -20 -1161 0
-1119 0 -1121 21 -1148 l20 -26 1265 0 c1239 0 1264 0 1283 19 11 11 23 35 26
53 3 18 5 526 3 1128 -3 1029 -4 1097 -21 1135 -25 55 -54 84 -112 111 l-50
24 -1125 -1 c-923 0 -1132 -2 -1163 -13z"/>
<path d="M3105 3895 c-48 -17 -81 -52 -94 -103 -7 -24 -11 -388 -11 -1079 l0
-1043 -562 0 -562 0 35 -37 c78 -84 132 -181 154 -278 l12 -50 595 -3 596 -2
12 52 c38 166 169 328 329 408 102 51 293 68 406 35 214 -62 363 -212 425
-430 l17 -60 312 0 313 0 19 24 c17 20 19 40 19 158 0 129 -1 135 -25 158 -22
23 -31 25 -125 25 l-100 0 0 514 c0 574 -4 619 -63 735 -46 90 -474 722 -537
793 -65 74 -155 132 -255 165 l-80 27 -395 3 c-328 3 -402 1 -435 -12z m892
-398 c12 -7 105 -131 207 -276 196 -278 207 -300 166 -341 -19 -19 -33 -20
-505 -20 -472 0 -486 1 -505 20 -19 19 -20 33 -20 304 l0 285 26 20 c26 20 38
21 318 21 209 -1 297 -4 313 -13z"/>
<path d="M25 1645 c-24 -23 -25 -29 -25 -158 0 -118 2 -138 19 -158 l19 -24
425 -3 425 -3 12 53 c21 86 75 189 135 256 l57 62 -522 0 -521 0 -24 -25z"/>
<path d="M1391 1659 c-76 -15 -165 -63 -224 -123 -180 -179 -181 -462 -4 -638
221 -221 591 -160 724 118 54 113 62 222 26 337 -68 218 -295 351 -522 306z
m184 -238 c78 -35 135 -123 135 -206 0 -83 -57 -171 -135 -206 -94 -43 -217
-8 -278 79 -30 43 -32 53 -32 127 0 72 3 84 30 125 60 88 185 124 280 81z"/>
<path d="M3771 1660 c-164 -35 -304 -169 -346 -330 -67 -259 104 -520 369
-561 296 -46 556 212 515 511 -23 164 -153 318 -307 366 -61 19 -175 26 -231
14z m185 -239 c84 -38 144 -145 130 -232 -26 -161 -183 -244 -327 -171 -119
60 -159 211 -84 324 25 37 83 81 121 91 44 11 121 6 160 -12z"/>
</g>
</svg>
